<svg width="913" height="270" viewBox="0 0 913 270" fill="none" xmlns="http://www.w3.org/2000/svg">
<path d="M606.818 113.421L599.497 52.4159V3.61182H643.421V52.4159L636.101 113.421H606.818ZM621.459 177.843C608.77 177.843 598.277 167.35 598.277 154.661C598.277 141.971 608.77 131.479 621.459 131.479C634.148 131.479 644.641 141.971 644.641 154.661C644.641 167.35 634.148 177.843 621.459 177.843Z" fill="#FDC300"/>
<path d="M587.261 174.426H545.777L506.734 120.498V174.426H470.131V3.61182H506.734V105.856L543.337 52.4159H586.041L541.629 113.421L587.261 174.426Z" fill="#1E1E1E"/>
<path d="M399.359 49.001C424.005 49.001 444.991 66.5705 444.991 99.5132V174.428H408.388V104.882C408.388 89.7524 398.871 82.6758 387.158 82.6758C373.737 82.6758 364.464 90.4845 364.464 107.81V174.428H327.861V52.4173H364.464V63.8862C371.053 54.8575 383.254 49.001 399.359 49.001Z" fill="#1E1E1E"/>
<path d="M264.403 52.4173H301.006V174.428H264.403V162.959C256.35 172.231 244.393 177.844 228.044 177.844C196.077 177.844 169.723 149.781 169.723 113.422C169.723 77.0633 196.077 49.001 228.044 49.001C244.393 49.001 256.35 54.6134 264.403 63.8862V52.4173ZM235.364 143.193C252.202 143.193 264.403 131.724 264.403 113.422C264.403 95.1209 252.202 83.6519 235.364 83.6519C218.527 83.6519 206.326 95.1209 206.326 113.422C206.326 131.724 218.527 143.193 235.364 143.193Z" fill="#1E1E1E"/>
<path d="M125.687 74.1341C130.567 57.7847 146.917 49.9761 162.29 49.9761V91.4596C147.161 89.0194 125.687 95.1199 125.687 119.278V174.427H89.084V52.4163H125.687V74.1341Z" fill="#1E1E1E"/>
<path d="M75.6464 35.3351C61.9812 34.115 52.9525 38.2633 52.9525 52.4165H75.6464V87.5555H52.9525V174.427H16.3494V87.5555H0V52.4165H16.3494C16.3494 18.2536 35.139 -2.24409 75.6464 0.196115V35.3351Z" fill="#1E1E1E"/>
<path d="M857.915 125.5H865.545L842.219 185.014C838.077 195.478 830.011 202.563 820.201 201.8V195.042C827.286 195.805 832.191 190.791 835.134 183.706L836.551 180.327L812.135 125.5H819.765L840.257 171.171L857.915 125.5Z" fill="#1E1E1E"/>
<path d="M796.249 125.5H803.443V180H796.249V169.318C791.671 176.621 783.932 181.308 774.231 181.308C758.862 181.308 746.109 168.882 746.109 152.75C746.109 136.618 758.862 124.192 774.231 124.192C783.932 124.192 791.671 128.879 796.249 136.182V125.5ZM774.776 174.332C786.875 174.332 796.249 164.849 796.249 152.75C796.249 140.651 786.875 131.168 774.776 131.168C762.677 131.168 753.303 140.651 753.303 152.75C753.303 164.849 762.677 174.332 774.776 174.332Z" fill="#1E1E1E"/>
<path d="M733.248 125.5H740.66L723.874 180H716.026L701.965 136.073L687.904 180H680.056L663.27 125.5H670.682L684.089 170.735L698.368 125.5H705.562L719.841 170.735L733.248 125.5Z" fill="#1E1E1E"/>
<path d="M868.976 32.1924C885.653 32.1924 896.008 46.0354 896.008 60.9684C896.008 62.0584 895.899 63.2574 895.79 64.3474H847.939C849.465 75.4654 858.076 82.3324 869.63 82.3324C878.241 82.3324 884.236 78.2994 887.179 73.0674L893.501 76.7734C888.923 84.1854 880.53 89.3084 869.521 89.3084C852.299 89.3084 840.527 77.2094 840.527 60.7504C840.527 44.7274 852.081 32.1924 868.976 32.1924ZM868.976 39.1684C857.531 39.1684 849.356 46.6894 847.939 57.3714H888.596C887.07 45.3814 878.35 39.1684 868.976 39.1684Z" fill="#1E1E1E"/>
<path d="M835.106 40.4762H819.41V73.5032C819.41 82.8772 824.533 82.1142 835.106 81.6782V88.0002C820.391 90.1802 812.216 86.5832 812.216 73.5032V40.4762H800.771V33.5002H812.216V20.4202L819.41 18.2402V33.5002H835.106V40.4762Z" fill="#1E1E1E"/>
<path d="M783.796 33.5004H790.99V88.0004H783.796V77.3184C779.218 84.6214 771.479 89.3084 761.778 89.3084C746.409 89.3084 733.656 76.8824 733.656 60.7504C733.656 44.6184 746.409 32.1924 761.778 32.1924C771.479 32.1924 779.218 36.8794 783.796 44.1824V33.5004ZM762.323 82.3324C774.422 82.3324 783.796 72.8494 783.796 60.7504C783.796 48.6514 774.422 39.1684 762.323 39.1684C750.224 39.1684 740.85 48.6514 740.85 60.7504C740.85 72.8494 750.224 82.3324 762.323 82.3324Z" fill="#1E1E1E"/>
<path d="M714.499 33.5004H721.693V85.8204C721.693 102.388 708.395 111.108 694.334 111.108C681.799 111.108 672.752 106.312 668.501 97.8104L674.823 94.2134C677.548 99.7724 682.562 104.132 694.334 104.132C706.978 104.132 714.499 96.9384 714.499 85.8204V77.3184C709.921 84.6214 702.182 89.3084 692.481 89.3084C677.112 89.3084 664.359 76.8824 664.359 60.7504C664.359 44.6184 677.112 32.1924 692.481 32.1924C702.182 32.1924 709.921 36.8794 714.499 44.1824V33.5004ZM693.026 82.3324C705.125 82.3324 714.499 72.8494 714.499 60.7504C714.499 48.6514 705.125 39.1684 693.026 39.1684C680.927 39.1684 671.553 48.6514 671.553 60.7504C671.553 72.8494 680.927 82.3324 693.026 82.3324Z" fill="#1E1E1E"/>
<path d="M901.169 226.792C908.367 226.792 912.733 231.512 912.733 238.887V257H908.839V238.887C908.839 233.636 905.948 230.568 900.815 230.568C895.623 230.568 891.257 233.636 891.257 241.542V257H887.363V227.5H891.257V232.102C893.558 228.385 896.98 226.792 901.169 226.792Z" fill="#1E1E1E"/>
<path d="M865.33 257.708C856.716 257.708 849.812 250.982 849.812 242.25C849.812 233.518 856.716 226.792 865.33 226.792C873.944 226.792 880.846 233.518 880.846 242.25C880.846 250.982 873.944 257.708 865.33 257.708ZM865.33 253.932C871.879 253.932 876.953 248.799 876.953 242.25C876.953 235.701 871.879 230.568 865.33 230.568C858.781 230.568 853.707 235.701 853.707 242.25C853.707 248.799 858.781 253.932 865.33 253.932Z" fill="#1E1E1E"/>
<path d="M841.373 221.246C839.78 221.246 838.541 219.948 838.541 218.414C838.541 216.88 839.78 215.582 841.373 215.582C842.966 215.582 844.205 216.88 844.205 218.414C844.205 219.948 842.966 221.246 841.373 221.246ZM839.426 257V227.5H843.32V257H839.426Z" fill="#1E1E1E"/>
<path d="M832.937 231.276H824.441V249.153C824.441 254.227 827.214 253.814 832.937 253.578V257C824.972 258.18 820.547 256.233 820.547 249.153V231.276H814.352V227.5H820.547V220.42L824.441 219.24V227.5H832.937V231.276Z" fill="#1E1E1E"/>
<path d="M805.169 227.5H809.063V257H805.169V252.398C802.868 256.115 799.446 257.708 795.257 257.708C788.059 257.708 783.693 252.988 783.693 245.613V227.5H787.587V245.613C787.587 250.864 790.478 253.932 795.611 253.932C800.803 253.932 805.169 250.864 805.169 242.958V227.5Z" fill="#1E1E1E"/>
<path d="M772.244 257V213.93H776.138V257H772.244Z" fill="#1E1E1E"/>
<path d="M750.212 257.708C741.598 257.708 734.695 250.982 734.695 242.25C734.695 233.518 741.598 226.792 750.212 226.792C758.826 226.792 765.729 233.518 765.729 242.25C765.729 250.982 758.826 257.708 750.212 257.708ZM750.212 253.932C756.761 253.932 761.835 248.799 761.835 242.25C761.835 235.701 756.761 230.568 750.212 230.568C743.663 230.568 738.589 235.701 738.589 242.25C738.589 248.799 743.663 253.932 750.212 253.932Z" fill="#1E1E1E"/>
<path d="M713.604 235.229C713.604 242.545 730.832 238.356 730.832 249.212C730.832 254.227 726.466 257.708 720.153 257.708C714.253 257.708 710.241 254.699 708.766 250.923L712.07 248.976C713.132 251.985 716.2 253.932 720.153 253.932C723.634 253.932 726.938 252.693 726.938 249.212C726.938 241.896 709.71 246.085 709.71 235.229C709.71 230.509 713.899 226.792 719.799 226.792C724.637 226.792 728.413 229.152 730.124 232.81L726.879 234.698C725.64 231.689 722.631 230.568 719.799 230.568C716.731 230.568 713.604 232.043 713.604 235.229Z" fill="#1E1E1E"/>
<path d="M686.95 227.5H691.08L678.454 259.714C676.212 265.378 671.846 269.213 666.536 268.8V265.142C670.371 265.555 673.026 262.841 674.619 259.006L675.386 257.177L662.17 227.5H666.3L677.392 252.221L686.95 227.5Z" fill="#1E1E1E"/>
<path d="M653.572 227.5H657.466V257H653.572V251.218C651.094 255.171 646.905 257.708 641.654 257.708C633.335 257.708 626.432 250.982 626.432 242.25C626.432 233.518 633.335 226.792 641.654 226.792C646.905 226.792 651.094 229.329 653.572 233.282V227.5ZM641.949 253.932C648.498 253.932 653.572 248.799 653.572 242.25C653.572 235.701 648.498 230.568 641.949 230.568C635.4 230.568 630.326 235.701 630.326 242.25C630.326 248.799 635.4 253.932 641.949 253.932Z" fill="#1E1E1E"/>
<path d="M619.47 227.5H623.482L614.396 257H610.148L602.537 233.223L594.926 257H590.678L581.592 227.5H585.604L592.861 251.985L600.59 227.5H604.484L612.213 251.985L619.47 227.5Z" fill="#1E1E1E"/>
<path d="M564.278 226.792C573.305 226.792 578.91 234.285 578.91 242.368C578.91 242.958 578.851 243.607 578.792 244.197H552.891C553.717 250.215 558.378 253.932 564.632 253.932C569.293 253.932 572.538 251.749 574.131 248.917L577.553 250.923C575.075 254.935 570.532 257.708 564.573 257.708C555.251 257.708 548.879 251.159 548.879 242.25C548.879 233.577 555.133 226.792 564.278 226.792ZM564.278 230.568C558.083 230.568 553.658 234.639 552.891 240.421H574.898C574.072 233.931 569.352 230.568 564.278 230.568Z" fill="#1E1E1E"/>
<path d="M545.944 231.276H537.448V249.153C537.448 254.227 540.221 253.814 545.944 253.578V257C537.979 258.18 533.554 256.233 533.554 249.153V231.276H527.359V227.5H533.554V220.42L537.448 219.24V227.5H545.944V231.276Z" fill="#1E1E1E"/>
<path d="M518.171 227.5H522.065V257H518.171V251.218C515.693 255.171 511.504 257.708 506.253 257.708C497.934 257.708 491.031 250.982 491.031 242.25C491.031 233.518 497.934 226.792 506.253 226.792C511.504 226.792 515.693 229.329 518.171 233.282V227.5ZM506.548 253.932C513.097 253.932 518.171 248.799 518.171 242.25C518.171 235.701 513.097 230.568 506.548 230.568C499.999 230.568 494.925 235.701 494.925 242.25C494.925 248.799 499.999 253.932 506.548 253.932Z" fill="#1E1E1E"/>
<path d="M480.663 227.5H484.557V255.82C484.557 264.788 477.359 269.508 469.748 269.508C462.963 269.508 458.066 266.912 455.765 262.31L459.187 260.363C460.662 263.372 463.376 265.732 469.748 265.732C476.592 265.732 480.663 261.838 480.663 255.82V251.218C478.185 255.171 473.996 257.708 468.745 257.708C460.426 257.708 453.523 250.982 453.523 242.25C453.523 233.518 460.426 226.792 468.745 226.792C473.996 226.792 478.185 229.329 480.663 233.282V227.5ZM469.04 253.932C475.589 253.932 480.663 248.799 480.663 242.25C480.663 235.701 475.589 230.568 469.04 230.568C462.491 230.568 457.417 235.701 457.417 242.25C457.417 248.799 462.491 253.932 469.04 253.932Z" fill="#1E1E1E"/>
<path d="M430.332 221.246C428.739 221.246 427.5 219.948 427.5 218.414C427.5 216.88 428.739 215.582 430.332 215.582C431.925 215.582 433.164 216.88 433.164 218.414C433.164 219.948 431.925 221.246 430.332 221.246ZM428.385 257V227.5H432.279V257H428.385Z" fill="#1E1E1E"/>
<path d="M406.689 226.792C415.008 226.792 421.911 233.518 421.911 242.25C421.911 250.982 415.008 257.708 406.689 257.708C401.438 257.708 397.249 255.171 394.771 251.218V268.8H390.877V227.5H394.771V233.282C397.249 229.329 401.438 226.792 406.689 226.792ZM406.394 253.932C412.943 253.932 418.017 248.799 418.017 242.25C418.017 235.701 412.943 230.568 406.394 230.568C399.845 230.568 394.771 235.701 394.771 242.25C394.771 248.799 399.845 253.932 406.394 253.932Z" fill="#1E1E1E"/>
<path d="M378.738 227.5H382.632V257H378.738V251.218C376.26 255.171 372.071 257.708 366.82 257.708C358.501 257.708 351.598 250.982 351.598 242.25C351.598 233.518 358.501 226.792 366.82 226.792C372.071 226.792 376.26 229.329 378.738 233.282V227.5ZM367.115 253.932C373.664 253.932 378.738 248.799 378.738 242.25C378.738 235.701 373.664 230.568 367.115 230.568C360.566 230.568 355.492 235.701 355.492 242.25C355.492 248.799 360.566 253.932 367.115 253.932Z" fill="#1E1E1E"/>
<path d="M317.792 226.792C326.819 226.792 332.424 234.285 332.424 242.368C332.424 242.958 332.365 243.607 332.306 244.197H306.405C307.231 250.215 311.892 253.932 318.146 253.932C322.807 253.932 326.052 251.749 327.645 248.917L331.067 250.923C328.589 254.935 324.046 257.708 318.087 257.708C308.765 257.708 302.393 251.159 302.393 242.25C302.393 233.577 308.647 226.792 317.792 226.792ZM317.792 230.568C311.597 230.568 307.172 234.639 306.405 240.421H328.412C327.586 233.931 322.866 230.568 317.792 230.568Z" fill="#1E1E1E"/>
<path d="M285.644 257.708C276.735 257.708 270.127 250.982 270.127 242.25C270.127 233.518 276.735 226.792 285.644 226.792C291.485 226.792 296.441 229.86 298.565 234.521L295.379 236.35C293.786 232.869 290.069 230.568 285.644 230.568C279.095 230.568 274.021 235.701 274.021 242.25C274.021 248.799 279.095 253.932 285.644 253.932C290.128 253.932 293.727 251.572 295.615 248.15L298.86 250.038C296.441 254.699 291.426 257.708 285.644 257.708Z" fill="#1E1E1E"/>
<path d="M259.025 232.397C261.09 228.267 264.571 227.028 268.347 227.028V230.804C263.627 230.804 259.025 233.282 259.025 240.598V257H255.131V227.5H259.025V232.397Z" fill="#1E1E1E"/>
<path d="M242.999 227.5H246.893V257H242.999V252.398C240.698 256.115 237.276 257.708 233.087 257.708C225.889 257.708 221.523 252.988 221.523 245.613V227.5H225.417V245.613C225.417 250.864 228.308 253.932 233.441 253.932C238.633 253.932 242.999 250.864 242.999 242.958V227.5Z" fill="#1E1E1E"/>
<path d="M200.197 257.708C191.583 257.708 184.68 250.982 184.68 242.25C184.68 233.518 191.583 226.792 200.197 226.792C208.811 226.792 215.714 233.518 215.714 242.25C215.714 250.982 208.811 257.708 200.197 257.708ZM200.197 253.932C206.746 253.932 211.82 248.799 211.82 242.25C211.82 235.701 206.746 230.568 200.197 230.568C193.648 230.568 188.574 235.701 188.574 242.25C188.574 248.799 193.648 253.932 200.197 253.932Z" fill="#1E1E1E"/>
<path d="M163.592 235.229C163.592 242.545 180.82 238.356 180.82 249.212C180.82 254.227 176.454 257.708 170.141 257.708C164.241 257.708 160.229 254.699 158.754 250.923L162.058 248.976C163.12 251.985 166.188 253.932 170.141 253.932C173.622 253.932 176.926 252.693 176.926 249.212C176.926 241.896 159.698 246.085 159.698 235.229C159.698 230.509 163.887 226.792 169.787 226.792C174.625 226.792 178.401 229.152 180.112 232.81L176.867 234.698C175.628 231.689 172.619 230.568 169.787 230.568C166.719 230.568 163.592 232.043 163.592 235.229Z" fill="#1E1E1E"/>
<path d="M126.679 226.792C133.877 226.792 138.243 231.512 138.243 238.887V257H134.349V238.887C134.349 233.636 131.458 230.568 126.325 230.568C121.133 230.568 116.767 233.636 116.767 241.542V257H112.873V227.5H116.767V232.102C119.068 228.385 122.49 226.792 126.679 226.792Z" fill="#1E1E1E"/>
<path d="M92.0474 226.792C101.074 226.792 106.679 234.285 106.679 242.368C106.679 242.958 106.62 243.607 106.561 244.197H80.6604C81.4864 250.215 86.1474 253.932 92.4014 253.932C97.0624 253.932 100.307 251.749 101.9 248.917L105.322 250.923C102.844 254.935 98.3014 257.708 92.3424 257.708C83.0204 257.708 76.6484 251.159 76.6484 242.25C76.6484 233.577 82.9024 226.792 92.0474 226.792ZM92.0474 230.568C85.8524 230.568 81.4274 234.639 80.6604 240.421H102.667C101.841 233.931 97.1214 230.568 92.0474 230.568Z" fill="#1E1E1E"/>
<path d="M56.7222 226.792C65.0412 226.792 71.9442 233.518 71.9442 242.25C71.9442 250.982 65.0412 257.708 56.7222 257.708C51.4712 257.708 47.2822 255.171 44.8042 251.218V268.8H40.9102V227.5H44.8042V233.282C47.2822 229.329 51.4712 226.792 56.7222 226.792ZM56.4272 253.932C62.9762 253.932 68.0502 248.799 68.0502 242.25C68.0502 235.701 62.9762 230.568 56.4272 230.568C49.8782 230.568 44.8042 235.701 44.8042 242.25C44.8042 248.799 49.8782 253.932 56.4272 253.932Z" fill="#1E1E1E"/>
<path d="M18.8764 257.708C10.2624 257.708 3.35938 250.982 3.35938 242.25C3.35938 233.518 10.2624 226.792 18.8764 226.792C27.4904 226.792 34.3934 233.518 34.3934 242.25C34.3934 250.982 27.4904 257.708 18.8764 257.708ZM18.8764 253.932C25.4254 253.932 30.4994 248.799 30.4994 242.25C30.4994 235.701 25.4254 230.568 18.8764 230.568C12.3274 230.568 7.25338 235.701 7.25338 242.25C7.25338 248.799 12.3274 253.932 18.8764 253.932Z" fill="#1E1E1E"/>
</svg>
