<svg xmlns="http://www.w3.org/2000/svg" xmlns:xlink="http://www.w3.org/1999/xlink" style="enable-background:new 0 0 34 29;" version="1.1" viewBox="0 0 34 29" x="0px" y="0px" xml:space="preserve">
<path d="M25.2,10.1l-2.1,6.6L19.7,6h-8.8V0L3,2.4V6H0v7.5h3v5.1c0,7.3,3.3,10.1,12.4,8.8l2.4-0.4l0.6,2h8.1  L34,10.1L25.2,10.1z" style="fill:#FFFFFF;"></path>
  <path d="M6.8,19h0.8v1.2H6.8v3H5.5v-3H4.9V19h0.6c0-1.2,0.7-1.9,2.1-1.8v1.2C7.1,18.3,6.8,18.5,6.8,19z M10.6,18.9v1.4  c-0.5-0.1-1.3,0.1-1.3,1v1.9H8V19h1.3v0.8c0.1-0.3,0.3-0.5,0.5-0.6C10,19,10.3,18.9,10.6,18.9z M15.4,19v4.2h-1.3v-0.4  c-0.2,0.2-0.4,0.3-0.6,0.4c-0.2,0.1-0.5,0.1-0.7,0.1c-1.1,0-2-1-2-2.2s0.9-2.2,2-2.2c0.2,0,0.5,0,0.7,0.1c0.2,0.1,0.4,0.2,0.6,0.4  V19H15.4z M14.1,21.1c0-0.2-0.1-0.4-0.2-0.6c-0.1-0.2-0.3-0.3-0.5-0.4c-0.2-0.1-0.4-0.1-0.6,0c-0.2,0-0.4,0.1-0.5,0.3  c-0.1,0.1-0.2,0.3-0.3,0.5c0,0.2,0,0.4,0.1,0.6s0.2,0.3,0.4,0.4c0.2,0.1,0.4,0.2,0.6,0.2c0.1,0,0.3,0,0.4-0.1  c0.1-0.1,0.2-0.1,0.3-0.2c0.1-0.1,0.2-0.2,0.2-0.3C14.1,21.4,14.1,21.2,14.1,21.1z M20.4,20.6v2.6h-1.3v-2.4c0-0.1,0-0.2,0-0.3  c0-0.1-0.1-0.2-0.2-0.3c-0.1-0.1-0.2-0.1-0.2-0.2c-0.1,0-0.2-0.1-0.3,0c-0.5,0-0.8,0.3-0.8,0.9v2.3h-1.3V19h1.3v0.4  c0.1-0.2,0.3-0.3,0.5-0.4c0.2-0.1,0.4-0.1,0.7-0.1C19.7,18.9,20.4,19.5,20.4,20.6z M23.9,23.2l-1.4-1.9v1.9h-1.3v-5.9h1.3v3.6  l1.3-1.9h1.5l-1.5,2.1l1.6,2.1H23.9z"></path>
  <path d="M25.8,22.5c0-0.2,0-0.3,0.1-0.4c0.1-0.1,0.2-0.2,0.4-0.3c0.1-0.1,0.3-0.1,0.5,0  c0.2,0,0.3,0.1,0.4,0.2c0.1,0.1,0.2,0.3,0.2,0.4c0,0.2,0,0.3,0,0.5c-0.1,0.1-0.2,0.3-0.3,0.4c-0.1,0.1-0.3,0.1-0.4,0.1  c-0.2,0-0.4-0.1-0.6-0.2C25.9,23,25.8,22.8,25.8,22.5z M25.8,19v-1.7h1.5V19l-0.2,2.1h-1L25.8,19z" style="fill:#FDC306;"></path>
  <path d="M11.8,9.2l-1.4,4.3H9.3l-0.7-2.3l-0.7,2.3H6.7L5.3,9.2h1.4l0.6,2.3L8,9.2h1.2l0.7,2.3l0.6-2.3H11.8z M14.3,12.5  c0.2,0,0.3,0,0.4-0.1s0.3-0.1,0.4-0.2l1,0.6c-0.2,0.3-0.5,0.5-0.8,0.7c-0.3,0.2-0.7,0.2-1,0.2c-1.5,0-2.4-1-2.4-2.2  c0-0.3,0-0.6,0.2-0.9c0.1-0.3,0.3-0.5,0.5-0.7c0.2-0.2,0.5-0.4,0.7-0.5c0.3-0.1,0.6-0.2,0.9-0.1c1.2,0,2.2,1,2.2,2.2  c0,0.2,0,0.3-0.1,0.5h-3C13.5,12.3,13.9,12.5,14.3,12.5z M15.1,10.9c-0.1-0.2-0.2-0.4-0.3-0.5s-0.4-0.2-0.6-0.2  c-0.2,0-0.4,0.1-0.6,0.2c-0.2,0.1-0.3,0.3-0.3,0.5H15.1z"></path>
  <path d="M12.4,14.1v4.3h-1.3V18c-0.2,0.2-0.4,0.3-0.6,0.4c-0.2,0.1-0.5,0.1-0.7,0.1c-1.1,0-2-1-2-2.2  s0.9-2.2,2-2.2c0.2,0,0.5,0,0.7,0.1c0.2,0.1,0.4,0.2,0.6,0.4v-0.4H12.4z M11.2,16.2c0-0.2-0.1-0.4-0.2-0.6c-0.1-0.2-0.3-0.3-0.5-0.4  c-0.2-0.1-0.4-0.1-0.6,0c-0.2,0-0.4,0.1-0.5,0.3c-0.1,0.1-0.2,0.3-0.3,0.5c0,0.2,0,0.4,0.1,0.6c0.1,0.2,0.2,0.3,0.4,0.5  c0.2,0.1,0.4,0.2,0.6,0.2c0.1,0,0.3,0,0.4-0.1c0.1-0.1,0.2-0.1,0.3-0.2c0.1-0.1,0.2-0.2,0.2-0.3C11.2,16.5,11.2,16.4,11.2,16.2z   M15.9,14v1.4c-0.5-0.1-1.3,0.1-1.3,1v1.9h-1.3v-4.3h1.3v0.8c0.1-0.3,0.3-0.5,0.5-0.6C15.4,14.1,15.7,14,15.9,14z M18.6,17.3  c0.1,0,0.3,0,0.4-0.1c0.1-0.1,0.3-0.1,0.4-0.2l1,0.6c-0.2,0.3-0.5,0.5-0.8,0.7c-0.3,0.2-0.7,0.2-1,0.2c-1.5,0-2.4-1-2.4-2.2  c0-0.3,0-0.6,0.2-0.9c0.1-0.3,0.3-0.5,0.5-0.7c0.2-0.2,0.5-0.4,0.7-0.5c0.3-0.1,0.6-0.2,0.9-0.1c1.2,0,2.2,1,2.2,2.2  c0,0.2,0,0.3-0.1,0.5h-3C17.7,17.2,18.1,17.3,18.6,17.3z M19.3,15.8c-0.1-0.2-0.2-0.4-0.3-0.5c-0.2-0.1-0.4-0.2-0.6-0.2  s-0.4,0.1-0.6,0.2c-0.2,0.1-0.3,0.3-0.3,0.5H19.3z" style="fill:#FDC306;"></path>
</svg>
